<svg version="1.1" id="Layer_1" xmlns="http://www.w3.org/2000/svg" xmlns:xlink="http://www.w3.org/1999/xlink" x="0px" y="0px"
	 width="100%" viewBox="0 0 3579 2352" enable-background="new 0 0 3579 2352" xml:space="preserve">
<path fill="#FFFFFF" opacity="1.000000" stroke="none" 
	d="
M3582.000000,1296.000000 
	C3582.000000,1648.531128 3582.000000,2001.062134 3582.000000,2354.000000 
	C3197.283691,2354.000000 2812.567139,2354.000000 2427.364258,2353.352051 
	C2428.858154,2352.452881 2430.848389,2352.265137 2432.816406,2351.940186 
	C2466.504883,2346.373047 2489.461670,2328.074463 2498.730469,2294.733887 
	C2501.634277,2284.288330 2503.419922,2273.179932 2503.499023,2262.358887 
	C2503.944580,2201.364502 2503.713867,2140.365234 2503.713867,2079.367676 
	C2503.713867,2075.801025 2503.714111,2072.234375 2503.714111,2068.301758 
	C2492.116455,2068.301758 2481.666748,2068.301758 2470.285889,2068.301758 
	C2470.285889,2072.507568 2470.286133,2076.101562 2470.286133,2079.695557 
	C2470.286133,2136.693359 2470.271729,2193.690918 2470.296387,2250.688721 
	C2470.302246,2264.072754 2468.718994,2277.156250 2464.460205,2289.943604 
	C2459.184570,2305.781982 2448.553467,2315.668701 2432.623535,2320.117920 
	C2419.543457,2323.770752 2406.138672,2323.337646 2393.027588,2321.556885 
	C2368.811035,2318.268066 2352.869629,2304.608887 2347.532715,2280.331299 
	C2345.408447,2270.666748 2343.937012,2260.644287 2343.879150,2250.774902 
	C2343.541748,2193.445801 2343.720215,2136.113525 2343.699463,2078.782471 
	C2343.698242,2075.258057 2343.485840,2071.733398 2343.373291,2068.251953 
	C2331.644287,2068.251953 2321.117920,2068.251953 2310.286621,2068.251953 
	C2310.042480,2070.048340 2309.720459,2071.313965 2309.719971,2072.579590 
	C2309.689941,2140.243408 2309.283691,2207.911133 2309.916260,2275.569092 
	C2310.118408,2297.188965 2318.042725,2316.518555 2334.770508,2331.409424 
	C2345.239258,2340.729004 2357.567627,2346.239502 2370.993652,2349.516357 
	C2377.946289,2351.213379 2384.994873,2352.517822 2392.000000,2354.000000 
	C2301.950195,2354.000000 2211.900391,2354.000000 2121.052979,2353.587891 
	C2120.255371,2353.175537 2120.428955,2352.329834 2121.289062,2352.330078 
	C2141.481445,2351.626709 2159.598145,2346.439697 2176.021729,2336.337402 
	C2182.713379,2332.220947 2188.956787,2326.975830 2194.369873,2321.264160 
	C2205.448730,2309.574707 2210.863037,2295.371338 2212.973389,2279.223389 
	C2216.794922,2249.982178 2203.100342,2215.897461 2170.416016,2205.274414 
	C2165.142578,2203.560303 2159.922363,2201.682861 2153.532959,2199.487793 
	C2156.581299,2198.244629 2158.336182,2197.479736 2160.125977,2196.806152 
	C2197.902344,2182.585205 2210.906250,2146.402588 2201.934570,2110.605469 
	C2201.062744,2107.125977 2199.350098,2103.784668 2197.611572,2100.607178 
	C2187.203857,2081.586182 2169.894531,2072.204102 2149.594482,2068.383057 
	C2136.297852,2065.880371 2122.602783,2064.759521 2109.058105,2064.503418 
	C2094.146973,2064.221680 2079.179932,2065.320801 2064.282715,2066.428711 
	C2054.487061,2067.156982 2044.771606,2068.965576 2034.838135,2070.315186 
	C2034.838135,2163.327637 2034.838135,2255.454102 2034.838135,2347.830566 
	C2049.180176,2351.961670 2063.381836,2352.630859 2077.853027,2352.645508 
	C2078.002930,2353.080322 2078.000000,2354.000000 2078.000000,2354.000000 
	C2027.950195,2354.000000 1977.900391,2354.000000 1927.056885,2353.070312 
	C1926.263062,2257.623291 1926.263062,2163.105713 1926.263062,2068.114014 
	C1915.045410,2067.545898 1904.971924,2067.328369 1894.620605,2068.152588 
	C1894.479492,2071.235596 1894.312134,2073.194336 1894.311646,2075.153076 
	C1894.297363,2132.801025 1894.288574,2190.448975 1894.333496,2248.096924 
	C1894.335571,2250.730469 1894.836548,2253.364258 1895.115479,2255.996826 
	C1896.180542,2266.053467 1897.250244,2276.109619 1898.318237,2286.166016 
	C1895.375488,2284.543701 1894.124023,2282.378906 1892.881958,2280.208984 
	C1886.283936,2268.679932 1880.558960,2256.536133 1872.940308,2245.726562 
	C1840.928101,2200.306396 1808.356567,2155.280029 1775.974609,2110.120361 
	C1766.085083,2096.328369 1756.068481,2082.626953 1746.284546,2068.760986 
	C1743.763062,2065.187256 1740.975098,2063.200195 1736.414551,2063.608154 
	C1732.531860,2063.955566 1728.593384,2063.679932 1724.888306,2063.679932 
	C1722.797607,2076.614746 1723.289062,2342.760254 1725.193237,2349.592773 
	C1735.414062,2349.592773 1745.564941,2349.592773 1756.320190,2349.592773 
	C1756.320190,2346.245117 1756.320068,2343.623779 1756.320068,2341.002441 
	C1756.320068,2284.687256 1756.325195,2228.372314 1756.304565,2172.057129 
	C1756.303589,2169.398438 1756.180176,2166.729736 1755.932373,2164.082764 
	C1754.844604,2152.458740 1753.689941,2140.841064 1752.559570,2129.220947 
	C1755.231812,2130.945068 1756.579590,2133.088135 1757.860474,2135.270020 
	C1766.608765,2150.171387 1774.522217,2165.642578 1784.251343,2179.872559 
	C1805.094238,2210.358398 1826.850098,2240.220459 1848.274658,2270.307861 
	C1868.154297,2298.225586 1888.089355,2326.104248 1908.000000,2354.000000 
	C1613.283447,2354.000000 1318.567017,2354.000000 1023.437683,2353.440430 
	C1027.880615,2351.795166 1032.860840,2351.091553 1037.571777,2349.559814 
	C1063.376953,2341.169189 1083.092041,2325.951904 1090.465210,2298.716797 
	C1097.335205,2273.340576 1094.857300,2249.587891 1076.578369,2228.665283 
	C1065.109497,2215.537598 1050.850220,2206.728027 1035.881348,2198.744873 
	C1019.749451,2190.141602 1003.208557,2182.302734 987.114319,2173.632568 
	C978.297668,2168.883057 970.428955,2162.591064 964.679871,2154.183105 
	C957.199402,2143.243164 955.757080,2131.560547 961.214783,2119.278564 
	C968.751648,2102.317627 983.395020,2096.151855 1000.383972,2094.432861 
	C1024.584351,2091.983887 1048.058105,2095.888184 1070.886108,2104.072021 
	C1073.280029,2104.930420 1075.806030,2105.420410 1078.782471,2106.218506 
	C1082.180054,2095.918945 1085.361328,2086.275635 1088.869385,2075.641113 
	C1082.250366,2073.444580 1076.736572,2071.245850 1071.032959,2069.791260 
	C1054.229004,2065.505371 1037.191284,2063.425049 1019.759888,2063.505371 
	C1004.494812,2063.575684 989.408264,2063.569092 974.508667,2067.727051 
	C927.356384,2080.885254 907.361572,2135.579834 935.122986,2175.948242 
	C942.998230,2187.400146 953.104309,2196.614502 965.194946,2203.188232 
	C978.308289,2210.317871 991.994019,2216.396973 1005.449219,2222.895020 
	C1019.231262,2229.551025 1032.931519,2236.319092 1044.700562,2246.355957 
	C1060.502197,2259.832031 1064.201050,2283.769775 1052.497681,2301.354004 
	C1044.564209,2313.273926 1032.974243,2319.144531 1019.523010,2321.759033 
	C991.671265,2327.172852 964.666016,2323.481201 938.360718,2313.400879 
	C935.069641,2312.139648 931.751160,2310.949463 927.838867,2309.501953 
	C923.918518,2320.132812 920.312988,2329.910156 916.425903,2340.450928 
	C922.320251,2342.606934 926.865234,2344.589844 931.592163,2345.932617 
	C941.678162,2348.797363 951.858398,2351.330566 962.000000,2354.000000 
	C642.150940,2354.000000 322.301941,2354.000000 2.000000,2354.000000 
	C2.000000,2073.283691 2.000000,1792.567139 2.645667,1511.168091 
	C4.186672,1511.867920 5.324869,1513.151001 5.936659,1514.649048 
	C9.150971,1522.519897 15.403670,1526.581055 23.355543,1527.840820 
	C30.210905,1528.926758 37.208393,1529.618164 44.143669,1529.623169 
	C182.091309,1529.723022 320.039459,1529.878540 457.986389,1529.544556 
	C485.528625,1529.477905 513.112366,1528.096558 540.593384,1526.144531 
	C570.937378,1523.989258 600.223633,1516.593628 628.278870,1504.636719 
	C686.264893,1479.923340 725.452942,1437.464966 747.420532,1378.657959 
	C762.276062,1338.889771 767.444702,1297.370972 767.502136,1255.405884 
	C767.871582,985.508667 767.775085,715.610718 767.628113,445.713104 
	C767.594055,383.121704 766.873413,320.529755 766.271729,257.939941 
	C765.933533,222.761749 759.788635,188.507614 747.900818,155.416412 
	C728.014099,100.059669 692.439758,58.280575 639.426880,31.964960 
	C606.239929,15.490940 570.713623,7.632086 534.106873,3.307590 
	C534.075928,2.871358 534.000000,2.000000 534.000000,2.000000 
	C1549.750732,2.000000 2565.501465,2.000000 3582.000000,2.000000 
	C3582.000000,142.048935 3582.000000,282.099213 3581.556152,423.057068 
	C3581.112061,423.964661 3580.227783,423.879364 3580.132812,422.998047 
	C3578.686035,411.256378 3577.892578,400.291199 3575.879883,389.554688 
	C3569.124268,353.518127 3556.641113,319.700256 3535.213867,289.613861 
	C3501.248291,241.922623 3453.794678,215.353241 3397.824707,202.191864 
	C3366.928711,194.926590 3335.468994,192.763550 3303.890625,192.394974 
	C3269.231201,191.990417 3234.562012,192.125977 3199.899414,192.348068 
	C3157.620361,192.618942 3115.343750,193.294693 3073.065186,193.661942 
	C3044.291748,193.911880 3016.095459,198.258362 2988.565430,206.289154 
	C2947.953613,218.135986 2911.893066,237.663712 2882.910156,269.415710 
	C2863.731689,290.426361 2850.023193,314.419128 2839.673340,340.642456 
	C2823.676270,381.173676 2818.584961,423.727844 2818.506348,466.713867 
	C2818.088135,695.696350 2818.243408,924.680115 2818.371582,1153.663330 
	C2818.394043,1193.942017 2819.305176,1234.219604 2819.661865,1274.499023 
	C2819.919434,1303.610718 2824.479736,1332.083130 2832.464111,1359.984863 
	C2844.535400,1402.166626 2865.592041,1439.033569 2898.855469,1468.192261 
	C2925.606934,1491.642578 2956.910156,1506.557007 2990.936279,1516.349731 
	C3026.752930,1526.657959 3063.568359,1529.268066 3100.413330,1529.450928 
	C3174.351562,1529.817871 3248.296387,1528.713623 3322.239258,1528.336670 
	C3359.117432,1528.148682 3395.046143,1522.476929 3429.832764,1510.150635 
	C3481.086670,1491.989136 3521.190186,1460.211304 3547.697510,1412.302612 
	C3567.670166,1376.204468 3577.984863,1337.280640 3580.763672,1296.171631 
	C3581.181396,1296.167847 3582.000000,1296.000000 3582.000000,1296.000000 
M1452.308594,635.000000 
	C1452.308594,822.989624 1452.339722,1010.979248 1452.207397,1198.968750 
	C1452.201416,1207.557495 1451.506592,1216.309937 1449.750732,1224.696777 
	C1446.690918,1239.311401 1440.267944,1252.272095 1427.871948,1261.612671 
	C1412.761597,1272.998535 1395.288330,1276.143066 1377.049683,1276.247192 
	C1343.719116,1276.437744 1310.380493,1276.658081 1277.058472,1276.092407 
	C1266.547852,1275.913940 1255.796875,1274.295898 1245.654297,1271.517212 
	C1228.403198,1266.791382 1215.893311,1255.691406 1208.762939,1239.033936 
	C1203.443481,1226.606689 1201.639404,1213.565430 1201.642090,1200.082886 
	C1201.705688,879.765259 1201.691650,559.447693 1201.691284,239.130096 
	C1201.691284,236.463562 1202.071167,233.728058 1201.605957,231.145035 
	C1200.671875,225.959045 1199.969604,220.563049 1197.945312,215.771942 
	C1190.635864,198.472351 1175.960449,192.464935 1158.551392,192.393417 
	C1100.221924,192.153763 1041.890015,192.167099 983.561279,192.484543 
	C976.766724,192.521530 969.405579,193.827118 963.313599,196.687897 
	C948.430359,203.677124 941.563660,215.854233 941.571411,232.746597 
	C941.727356,573.396484 941.750854,914.046448 941.577209,1254.696289 
	C941.562195,1284.082886 943.646179,1313.129395 950.059692,1341.804688 
	C958.072998,1377.632935 971.729248,1410.958374 994.603088,1440.048218 
	C1031.249756,1486.654053 1080.782837,1510.763550 1137.724121,1522.061890 
	C1169.518188,1528.370483 1201.740845,1529.260132 1233.934937,1529.559692 
	C1288.260864,1530.065308 1342.598267,1530.058105 1396.924072,1529.546631 
	C1424.147827,1529.290405 1451.395508,1528.017944 1478.561646,1526.165527 
	C1507.927734,1524.163086 1536.343750,1517.124878 1563.541382,1505.854492 
	C1622.000488,1481.629761 1662.214844,1439.709595 1684.734009,1380.511230 
	C1699.850464,1340.772949 1705.436401,1299.322510 1705.482544,1257.347656 
	C1705.855225,918.364746 1705.691528,579.381287 1705.691284,240.397964 
	C1705.691284,238.064758 1705.812866,235.723221 1705.661011,233.399734 
	C1704.853271,221.040634 1701.249878,210.095139 1691.289062,201.692032 
	C1682.535645,194.307510 1672.252686,192.407028 1661.516968,192.375854 
	C1606.520142,192.216125 1551.522339,192.210266 1496.525879,192.429062 
	C1490.317505,192.453735 1483.858643,193.435303 1477.960571,195.345932 
	C1461.738525,200.601120 1452.318848,215.240982 1452.316772,234.019623 
	C1452.301758,367.013092 1452.308594,500.006531 1452.308594,635.000000 
M2237.000000,192.303253 
	C2202.720703,192.764893 2168.440430,193.177673 2134.162109,193.702255 
	C2101.359375,194.204224 2069.365967,199.729141 2038.270630,210.089005 
	C1979.206543,229.767075 1934.788330,266.667572 1907.767334,323.191193 
	C1888.529663,363.433929 1879.879761,406.398682 1879.832642,450.744202 
	C1879.545776,721.056519 1879.662842,991.369263 1879.773438,1261.681885 
	C1879.778564,1274.283691 1880.772949,1286.902466 1881.713989,1299.482910 
	C1883.834839,1327.840332 1890.129028,1355.334473 1900.426636,1381.802612 
	C1916.787354,1423.854492 1942.845215,1458.392456 1980.663940,1483.651611 
	C2022.499512,1511.593872 2069.422852,1523.905151 2118.805664,1527.460327 
	C2146.312012,1529.440674 2173.987793,1529.422607 2201.592041,1529.609375 
	C2248.586426,1529.927368 2295.588623,1530.074463 2342.579102,1529.546265 
	C2368.136719,1529.259033 2393.751221,1528.290649 2419.207520,1526.094604 
	C2454.928467,1523.013428 2489.116943,1513.653931 2521.221680,1497.222290 
	C2570.293213,1472.107056 2603.678467,1433.084229 2623.815918,1382.208374 
	C2639.710693,1342.052246 2645.023682,1299.900146 2645.494141,1257.213989 
	C2646.232422,1190.227295 2645.724121,1123.226440 2645.628418,1056.231689 
	C2645.620361,1050.621094 2645.088135,1044.955444 2644.191650,1039.413696 
	C2642.329102,1027.900513 2633.801270,1019.493103 2622.310791,1017.897278 
	C2615.758301,1016.987244 2609.104980,1016.386169 2602.495361,1016.370483 
	C2551.166504,1016.248596 2499.836426,1016.240845 2448.507568,1016.370972 
	C2440.896729,1016.390259 2433.237305,1016.931458 2425.690674,1017.919739 
	C2415.505127,1019.253601 2408.423828,1025.127441 2405.884033,1035.107422 
	C2404.347900,1041.144165 2403.798584,1047.575195 2403.779541,1053.832031 
	C2403.621094,1105.827515 2403.770508,1157.824097 2403.600830,1209.819580 
	C2403.576172,1217.419067 2403.054199,1225.153809 2401.567627,1232.586914 
	C2396.416992,1258.336060 2381.749268,1275.830933 2355.677490,1282.198853 
	C2347.683838,1284.151489 2339.322754,1285.471802 2331.117676,1285.536621 
	C2289.457031,1285.866577 2247.791504,1285.787842 2206.129150,1285.598511 
	C2198.529053,1285.563965 2190.791992,1285.058960 2183.363281,1283.557739 
	C2157.688965,1278.369141 2139.965820,1263.946899 2133.666016,1237.767090 
	C2131.742432,1229.772339 2130.452393,1221.401489 2130.446289,1213.201538 
	C2130.277832,980.219543 2130.265625,747.237305 2130.475586,514.255371 
	C2130.483887,505.077484 2131.986572,495.642395 2134.440918,486.783691 
	C2138.473877,472.225952 2147.044678,460.503754 2160.274170,452.538086 
	C2174.468506,443.991486 2190.177002,441.807068 2206.278320,441.746887 
	C2246.607910,441.596161 2286.941162,441.443817 2327.266846,441.878235 
	C2337.122803,441.984406 2347.174805,443.461182 2356.751465,445.851013 
	C2376.468750,450.771393 2390.031494,463.414764 2397.614502,482.224457 
	C2401.747803,492.476990 2403.695312,503.243958 2403.693359,514.336670 
	C2403.684814,564.999451 2403.671143,615.662231 2403.718506,666.325012 
	C2403.723145,671.313477 2403.777588,676.347351 2404.417480,681.281189 
	C2406.261719,695.498718 2415.600342,703.767456 2429.992432,704.295105 
	C2432.322266,704.380493 2434.658203,704.310913 2436.991211,704.310913 
	C2495.320068,704.311157 2553.648926,704.311279 2611.977783,704.310486 
	C2614.644287,704.310425 2617.316650,704.413696 2619.976318,704.276428 
	C2631.147705,703.700134 2641.329590,695.570190 2643.778076,684.826843 
	C2644.876465,680.007324 2645.629883,674.981323 2645.607422,670.053223 
	C2645.267334,595.776794 2644.703613,521.501404 2644.354248,447.225037 
	C2644.247314,424.498230 2640.969482,402.199280 2636.047119,380.115967 
	C2628.282959,345.282837 2614.869873,312.924927 2593.104248,284.340332 
	C2562.675537,244.377884 2522.018311,220.000061 2474.373291,206.115402 
	C2441.245117,196.461365 2407.232178,193.008087 2372.987061,192.473740 
	C2328.334717,191.776947 2283.663330,192.303345 2237.000000,192.303253 
M1510.485718,2099.584961 
	C1510.230469,2100.551514 1510.056152,2101.548340 1509.708252,2102.480225 
	C1482.381226,2175.687256 1455.034302,2248.886719 1427.709839,2322.094482 
	C1424.365845,2331.053955 1421.138428,2340.056885 1417.568970,2349.828613 
	C1429.558960,2349.828613 1440.436157,2349.828613 1452.030396,2349.828613 
	C1461.322754,2324.126465 1470.665771,2298.284912 1479.899292,2272.745605 
	C1514.438232,2272.745605 1548.020020,2272.745605 1582.281250,2272.745605 
	C1591.908813,2298.615723 1601.487427,2324.353760 1611.153687,2350.327637 
	C1617.495605,2350.327637 1623.137939,2350.380371 1628.779053,2350.313232 
	C1634.571411,2350.244141 1640.362427,2350.057861 1647.646973,2349.888428 
	C1611.604736,2253.541504 1576.127563,2158.704834 1540.782593,2064.221680 
	C1534.586670,2064.221680 1529.374023,2064.221680 1523.917969,2064.221680 
	C1519.539307,2075.791992 1515.309082,2086.969727 1510.485718,2099.584961 
M1336.994385,2067.679443 
	C1277.774292,2067.679443 1218.554199,2067.679443 1158.839111,2067.679443 
	C1158.839111,2078.286133 1158.839111,2087.760986 1158.839111,2098.490234 
	C1188.129395,2098.490234 1216.910889,2098.490234 1246.544556,2098.490234 
	C1246.544556,2182.932617 1246.544556,2266.124268 1246.544556,2349.586426 
	C1258.200439,2349.586426 1268.953735,2349.586426 1280.650635,2349.586426 
	C1280.650635,2265.698486 1280.650635,2182.540039 1280.650635,2098.068848 
	C1310.335571,2098.068848 1339.088501,2098.068848 1367.587158,2098.068848 
	C1367.587158,2087.251953 1367.587158,2077.772461 1367.587158,2067.679199 
	C1357.574341,2067.679199 1348.283203,2067.679199 1336.994385,2067.679443 
M2611.680420,2269.000000 
	C2611.680420,2295.852051 2611.680420,2322.704102 2611.680420,2349.751953 
	C2667.785400,2349.751953 2722.573975,2349.751953 2777.811523,2349.751953 
	C2777.811523,2339.707520 2777.811523,2330.233154 2777.811523,2319.679688 
	C2766.434082,2319.679688 2755.537354,2319.679932 2744.640625,2319.679932 
	C2733.647217,2319.679932 2722.654053,2319.679932 2711.660645,2319.679932 
	C2700.667236,2319.679932 2689.673828,2319.735352 2678.680664,2319.664307 
	C2667.852783,2319.594238 2656.996582,2319.979492 2645.374512,2319.369141 
	C2645.374512,2234.897705 2645.374512,2151.744385 2645.374512,2067.829346 
	C2633.717285,2067.679688 2622.957764,2067.426025 2611.680176,2067.978271 
	C2611.680176,2135.146240 2611.680176,2201.073242 2611.680420,2269.000000 
M3117.717285,2242.100586 
	C3118.378174,2235.859375 3119.443115,2229.630371 3119.629883,2223.375000 
	C3120.411621,2197.179932 3102.217041,2172.949951 3074.156982,2169.245117 
	C3052.291016,2166.357910 3033.542969,2171.150146 3019.609619,2188.267090 
	C3004.896729,2206.341553 3003.522949,2227.594482 3011.854248,2248.528076 
	C3020.449707,2270.125000 3037.873291,2279.762939 3061.213379,2280.667236 
	C3089.727783,2281.772217 3109.895020,2266.579102 3117.717285,2242.100586 
M410.357391,2204.129150 
	C406.291351,2219.609619 405.693909,2235.025635 412.222656,2249.995117 
	C427.418793,2284.838135 470.533539,2286.644775 493.249756,2273.600830 
	C512.353882,2262.631348 519.921997,2245.135010 519.771423,2223.486328 
	C519.516296,2186.802246 491.123138,2163.721436 453.524414,2169.090576 
	C433.032349,2172.017090 419.312225,2184.077148 410.357391,2204.129150 
M817.706970,2312.998779 
	C817.706970,2231.539795 817.706970,2150.080811 817.706970,2068.420410 
	C805.758850,2068.420410 795.010742,2068.420410 784.242371,2068.420410 
	C784.242371,2162.566406 784.242371,2255.964844 784.242371,2349.914062 
	C795.558533,2350.437988 806.293396,2350.763184 817.706848,2349.764160 
	C817.706848,2337.534912 817.706848,2326.266357 817.706970,2312.998779 
z"/>
<path fill="#FDE501" opacity="1.000000" stroke="none" 
	d="
M534.137817,3.743823 
	C570.713623,7.632086 606.239929,15.490940 639.426880,31.964960 
	C692.439758,58.280575 728.014099,100.059669 747.900818,155.416412 
	C759.788635,188.507614 765.933533,222.761749 766.271729,257.939941 
	C766.873413,320.529755 767.594055,383.121704 767.628113,445.713104 
	C767.775085,715.610718 767.871582,985.508667 767.502136,1255.405884 
	C767.444702,1297.370972 762.276062,1338.889771 747.420532,1378.657959 
	C725.452942,1437.464966 686.264893,1479.923340 628.278870,1504.636719 
	C600.223633,1516.593628 570.937378,1523.989258 540.593384,1526.144531 
	C513.112366,1528.096558 485.528625,1529.477905 457.986389,1529.544556 
	C320.039459,1529.878540 182.091309,1529.723022 44.143669,1529.623169 
	C37.208393,1529.618164 30.210905,1528.926758 23.355543,1527.840820 
	C15.403670,1526.581055 9.150971,1522.519897 5.936659,1514.649048 
	C5.324869,1513.151001 4.186672,1511.867920 2.645667,1510.242798 
	C2.000000,1015.291565 2.000000,520.583069 2.448864,24.428856 
	C3.870507,21.307652 5.248560,19.744305 5.748112,17.938000 
	C8.345598,8.545877 16.986099,6.233386 24.000000,2.000000 
	C189.375122,2.000000 354.750244,2.000000 521.550964,2.619268 
	C526.696960,3.406965 530.417419,3.575394 534.137817,3.743823 
M263.691589,729.000000 
	C263.691589,911.180542 263.691589,1093.361084 263.691589,1275.891724 
	C266.937683,1276.076782 268.883514,1276.283813 270.829407,1276.284424 
	C327.491730,1276.302490 384.155396,1276.496460 440.815063,1276.108398 
	C450.323090,1276.043457 460.051056,1274.321777 469.262085,1271.830200 
	C487.289642,1266.953857 500.291473,1255.468750 507.595886,1238.188965 
	C512.707703,1226.096313 514.332397,1213.250610 514.331055,1200.140381 
	C514.301331,911.162537 514.327637,622.184753 514.210754,333.206940 
	C514.207397,324.948853 513.502991,316.537384 511.837891,308.462921 
	C507.170746,285.830963 494.923584,269.023560 472.689087,260.524414 
	C460.058777,255.696472 446.778778,254.495255 433.523407,254.426361 
	C380.528900,254.150940 327.532104,254.312683 274.536163,254.312683 
	C271.292145,254.312683 268.048096,254.312683 263.691376,254.312683 
	C263.691376,412.567688 263.691376,569.783875 263.691589,729.000000 
z"/>
<path fill="#FDE501" opacity="1.000000" stroke="none" 
	d="
M3580.345703,1296.175537 
	C3577.984863,1337.280640 3567.670166,1376.204468 3547.697510,1412.302612 
	C3521.190186,1460.211304 3481.086670,1491.989136 3429.832764,1510.150635 
	C3395.046143,1522.476929 3359.117432,1528.148682 3322.239258,1528.336670 
	C3248.296387,1528.713623 3174.351562,1529.817871 3100.413330,1529.450928 
	C3063.568359,1529.268066 3026.752930,1526.657959 2990.936279,1516.349731 
	C2956.910156,1506.557007 2925.606934,1491.642578 2898.855469,1468.192261 
	C2865.592041,1439.033569 2844.535400,1402.166626 2832.464111,1359.984863 
	C2824.479736,1332.083130 2819.919434,1303.610718 2819.661865,1274.499023 
	C2819.305176,1234.219604 2818.394043,1193.942017 2818.371582,1153.663330 
	C2818.243408,924.680115 2818.088135,695.696350 2818.506348,466.713867 
	C2818.584961,423.727844 2823.676270,381.173676 2839.673340,340.642456 
	C2850.023193,314.419128 2863.731689,290.426361 2882.910156,269.415710 
	C2911.893066,237.663712 2947.953613,218.135986 2988.565430,206.289154 
	C3016.095459,198.258362 3044.291748,193.911880 3073.065186,193.661942 
	C3115.343750,193.294693 3157.620361,192.618942 3199.899414,192.348068 
	C3234.562012,192.125977 3269.231201,191.990417 3303.890625,192.394974 
	C3335.468994,192.763550 3366.928711,194.926590 3397.824707,202.191864 
	C3453.794678,215.353241 3501.248291,241.922623 3535.213867,289.613861 
	C3556.641113,319.700256 3569.124268,353.518127 3575.879883,389.554688 
	C3577.892578,400.291199 3578.686035,411.256378 3580.017822,423.836151 
	C3580.665039,429.703705 3581.332520,433.851837 3582.000000,438.000000 
	C3582.000000,719.375122 3582.000000,1000.750244 3581.379639,1283.553711 
	C3580.621338,1288.713135 3580.483643,1292.444336 3580.345703,1296.175537 
M3189.000000,439.695801 
	C3170.685059,439.899841 3152.325684,439.367493 3134.065430,440.472748 
	C3103.193115,442.341400 3082.352295,456.622192 3072.757568,483.362946 
	C3068.688232,494.705505 3067.681641,506.684174 3067.682129,518.722900 
	C3067.692139,746.967468 3067.660645,975.212097 3067.797607,1203.456543 
	C3067.802979,1212.370239 3068.593018,1221.449097 3070.402344,1230.163330 
	C3075.055176,1252.568115 3087.549316,1269.141357 3109.757812,1276.479980 
	C3118.767090,1279.457153 3128.555908,1281.350098 3138.017334,1281.462891 
	C3181.327637,1281.979248 3224.647949,1281.772827 3267.963867,1281.605469 
	C3274.895020,1281.578613 3281.941406,1281.035645 3288.729248,1279.692505 
	C3313.303955,1274.829590 3330.439209,1260.831055 3337.365234,1236.437866 
	C3340.140137,1226.665527 3341.498047,1216.160034 3341.515137,1205.984985 
	C3341.769531,1054.377563 3341.690430,902.769775 3341.690430,751.162048 
	C3341.690430,672.192749 3341.763916,593.223328 3341.625732,514.254272 
	C3341.599854,499.495178 3338.965820,485.144348 3331.503906,472.092834 
	C3319.227295,450.620667 3299.266357,441.596985 3275.921875,440.557861 
	C3247.657959,439.299774 3219.311035,439.899719 3189.000000,439.695801 
z"/>
<path fill="#FDE503" opacity="1.000000" stroke="none" 
	d="
M1908.899902,2354.000000 
	C1888.089355,2326.104248 1868.154297,2298.225586 1848.274658,2270.307861 
	C1826.850098,2240.220459 1805.094238,2210.358398 1784.251343,2179.872559 
	C1774.522217,2165.642578 1766.608765,2150.171387 1757.860474,2135.270020 
	C1756.579590,2133.088135 1755.231812,2130.945068 1752.559570,2129.220947 
	C1753.689941,2140.841064 1754.844604,2152.458740 1755.932373,2164.082764 
	C1756.180176,2166.729736 1756.303589,2169.398438 1756.304565,2172.057129 
	C1756.325195,2228.372314 1756.320068,2284.687256 1756.320068,2341.002441 
	C1756.320068,2343.623779 1756.320190,2346.245117 1756.320190,2349.592773 
	C1745.564941,2349.592773 1735.414062,2349.592773 1725.193237,2349.592773 
	C1723.289062,2342.760254 1722.797607,2076.614746 1724.888306,2063.679932 
	C1728.593384,2063.679932 1732.531860,2063.955566 1736.414551,2063.608154 
	C1740.975098,2063.200195 1743.763062,2065.187256 1746.284546,2068.760986 
	C1756.068481,2082.626953 1766.085083,2096.328369 1775.974609,2110.120361 
	C1808.356567,2155.280029 1840.928101,2200.306396 1872.940308,2245.726562 
	C1880.558960,2256.536133 1886.283936,2268.679932 1892.881958,2280.208984 
	C1894.124023,2282.378906 1895.375488,2284.543701 1898.318237,2286.166016 
	C1897.250244,2276.109619 1896.180542,2266.053467 1895.115479,2255.996826 
	C1894.836548,2253.364258 1894.335571,2250.730469 1894.333496,2248.096924 
	C1894.288574,2190.448975 1894.297363,2132.801025 1894.311646,2075.153076 
	C1894.312134,2073.194336 1894.479492,2071.235596 1894.620605,2068.152588 
	C1904.971924,2067.328369 1915.045410,2067.545898 1926.263062,2068.114014 
	C1926.263062,2163.105713 1926.263062,2257.623291 1926.131592,2353.070312 
	C1920.599976,2354.000000 1915.199951,2354.000000 1908.899902,2354.000000 
z"/>
<path fill="#FDE605" opacity="1.000000" stroke="none" 
	d="
M2392.935059,2354.000000 
	C2384.994873,2352.517822 2377.946289,2351.213379 2370.993652,2349.516357 
	C2357.567627,2346.239502 2345.239258,2340.729004 2334.770508,2331.409424 
	C2318.042725,2316.518555 2310.118408,2297.188965 2309.916260,2275.569092 
	C2309.283691,2207.911133 2309.689941,2140.243408 2309.719971,2072.579590 
	C2309.720459,2071.313965 2310.042480,2070.048340 2310.286621,2068.251953 
	C2321.117920,2068.251953 2331.644287,2068.251953 2343.373291,2068.251953 
	C2343.485840,2071.733398 2343.698242,2075.258057 2343.699463,2078.782471 
	C2343.720215,2136.113525 2343.541748,2193.445801 2343.879150,2250.774902 
	C2343.937012,2260.644287 2345.408447,2270.666748 2347.532715,2280.331299 
	C2352.869629,2304.608887 2368.811035,2318.268066 2393.027588,2321.556885 
	C2406.138672,2323.337646 2419.543457,2323.770752 2432.623535,2320.117920 
	C2448.553467,2315.668701 2459.184570,2305.781982 2464.460205,2289.943604 
	C2468.718994,2277.156250 2470.302246,2264.072754 2470.296387,2250.688721 
	C2470.271729,2193.690918 2470.286133,2136.693359 2470.286133,2079.695557 
	C2470.286133,2076.101562 2470.285889,2072.507568 2470.285889,2068.301758 
	C2481.666748,2068.301758 2492.116455,2068.301758 2503.714111,2068.301758 
	C2503.714111,2072.234375 2503.713867,2075.801025 2503.713867,2079.367676 
	C2503.713867,2140.365234 2503.944580,2201.364502 2503.499023,2262.358887 
	C2503.419922,2273.179932 2501.634277,2284.288330 2498.730469,2294.733887 
	C2489.461670,2328.074463 2466.504883,2346.373047 2432.816406,2351.940186 
	C2430.848389,2352.265137 2428.858154,2352.452881 2426.438965,2353.352051 
	C2415.290039,2354.000000 2404.580322,2354.000000 2392.935059,2354.000000 
z"/>
<path fill="#FDE504" opacity="1.000000" stroke="none" 
	d="
M962.937317,2354.000000 
	C951.858398,2351.330566 941.678162,2348.797363 931.592163,2345.932617 
	C926.865234,2344.589844 922.320251,2342.606934 916.425903,2340.450928 
	C920.312988,2329.910156 923.918518,2320.132812 927.838867,2309.501953 
	C931.751160,2310.949463 935.069641,2312.139648 938.360718,2313.400879 
	C964.666016,2323.481201 991.671265,2327.172852 1019.523010,2321.759033 
	C1032.974243,2319.144531 1044.564209,2313.273926 1052.497681,2301.354004 
	C1064.201050,2283.769775 1060.502197,2259.832031 1044.700562,2246.355957 
	C1032.931519,2236.319092 1019.231262,2229.551025 1005.449219,2222.895020 
	C991.994019,2216.396973 978.308289,2210.317871 965.194946,2203.188232 
	C953.104309,2196.614502 942.998230,2187.400146 935.122986,2175.948242 
	C907.361572,2135.579834 927.356384,2080.885254 974.508667,2067.727051 
	C989.408264,2063.569092 1004.494812,2063.575684 1019.759888,2063.505371 
	C1037.191284,2063.425049 1054.229004,2065.505371 1071.032959,2069.791260 
	C1076.736572,2071.245850 1082.250366,2073.444580 1088.869385,2075.641113 
	C1085.361328,2086.275635 1082.180054,2095.918945 1078.782471,2106.218506 
	C1075.806030,2105.420410 1073.280029,2104.930420 1070.886108,2104.072021 
	C1048.058105,2095.888184 1024.584351,2091.983887 1000.383972,2094.432861 
	C983.395020,2096.151855 968.751648,2102.317627 961.214783,2119.278564 
	C955.757080,2131.560547 957.199402,2143.243164 964.679871,2154.183105 
	C970.428955,2162.591064 978.297668,2168.883057 987.114319,2173.632568 
	C1003.208557,2182.302734 1019.749451,2190.141602 1035.881348,2198.744873 
	C1050.850220,2206.728027 1065.109497,2215.537598 1076.578369,2228.665283 
	C1094.857300,2249.587891 1097.335205,2273.340576 1090.465210,2298.716797 
	C1083.092041,2325.951904 1063.376953,2341.169189 1037.571777,2349.559814 
	C1032.860840,2351.091553 1027.880615,2351.795166 1022.512451,2353.440430 
	C1002.624878,2354.000000 983.249756,2354.000000 962.937317,2354.000000 
z"/>
<path fill="#FFFFFB" opacity="1.000000" stroke="none" 
	d="
M23.034088,2.000000 
	C16.986099,6.233386 8.345598,8.545877 5.748112,17.938000 
	C5.248560,19.744305 3.870507,21.307652 2.448864,23.491539 
	C2.000000,16.825583 2.000000,9.651165 2.000000,2.000000 
	C8.681844,2.000000 15.375010,2.000000 23.034088,2.000000 
z"/>
<path fill="#FDEC45" opacity="1.000000" stroke="none" 
	d="
M2078.937012,2354.000000 
	C2078.000000,2354.000000 2078.002930,2353.080322 2078.806885,2352.533936 
	C2093.216797,2352.101562 2106.822998,2352.215576 2120.428955,2352.329834 
	C2120.428955,2352.329834 2120.255371,2353.175537 2120.127686,2353.587891 
	C2106.624756,2354.000000 2093.249268,2354.000000 2078.937012,2354.000000 
z"/>
<path fill="#FEF5A3" opacity="1.000000" stroke="none" 
	d="
M3582.000000,437.125000 
	C3581.332520,433.851837 3580.665039,429.703705 3580.112793,424.717468 
	C3580.227783,423.879364 3581.112061,423.964661 3581.556152,423.982330 
	C3582.000000,428.083344 3582.000000,432.166656 3582.000000,437.125000 
z"/>
<path fill="#FEF5A3" opacity="1.000000" stroke="none" 
	d="
M3580.763672,1296.171631 
	C3580.483643,1292.444336 3580.621338,1288.713135 3581.379639,1284.490967 
	C3582.000000,1287.428711 3582.000000,1290.857422 3582.000000,1295.143066 
	C3582.000000,1296.000000 3581.181396,1296.167847 3580.763672,1296.171631 
z"/>
<path fill="#FEF5A3" opacity="1.000000" stroke="none" 
	d="
M534.106873,3.307591 
	C530.417419,3.575394 526.696960,3.406965 522.488281,2.619268 
	C525.428711,2.000000 528.857422,2.000000 533.143066,2.000000 
	C534.000000,2.000000 534.075928,2.871358 534.106873,3.307591 
z"/>
<path fill="#FDE501" opacity="1.000000" stroke="none" 
	d="
M1452.308594,634.000000 
	C1452.308594,500.006531 1452.301758,367.013092 1452.316772,234.019623 
	C1452.318848,215.240982 1461.738525,200.601120 1477.960571,195.345932 
	C1483.858643,193.435303 1490.317505,192.453735 1496.525879,192.429062 
	C1551.522339,192.210266 1606.520142,192.216125 1661.516968,192.375854 
	C1672.252686,192.407028 1682.535645,194.307510 1691.289062,201.692032 
	C1701.249878,210.095139 1704.853271,221.040634 1705.661011,233.399734 
	C1705.812866,235.723221 1705.691284,238.064758 1705.691284,240.397964 
	C1705.691528,579.381287 1705.855225,918.364746 1705.482544,1257.347656 
	C1705.436401,1299.322510 1699.850464,1340.772949 1684.734009,1380.511230 
	C1662.214844,1439.709595 1622.000488,1481.629761 1563.541382,1505.854492 
	C1536.343750,1517.124878 1507.927734,1524.163086 1478.561646,1526.165527 
	C1451.395508,1528.017944 1424.147827,1529.290405 1396.924072,1529.546631 
	C1342.598267,1530.058105 1288.260864,1530.065308 1233.934937,1529.559692 
	C1201.740845,1529.260132 1169.518188,1528.370483 1137.724121,1522.061890 
	C1080.782837,1510.763550 1031.249756,1486.654053 994.603088,1440.048218 
	C971.729248,1410.958374 958.072998,1377.632935 950.059692,1341.804688 
	C943.646179,1313.129395 941.562195,1284.082886 941.577209,1254.696289 
	C941.750854,914.046448 941.727356,573.396484 941.571411,232.746597 
	C941.563660,215.854233 948.430359,203.677124 963.313599,196.687897 
	C969.405579,193.827118 976.766724,192.521530 983.561279,192.484543 
	C1041.890015,192.167099 1100.221924,192.153763 1158.551392,192.393417 
	C1175.960449,192.464935 1190.635864,198.472351 1197.945312,215.771942 
	C1199.969604,220.563049 1200.671875,225.959045 1201.605957,231.145035 
	C1202.071167,233.728058 1201.691284,236.463562 1201.691284,239.130096 
	C1201.691650,559.447693 1201.705688,879.765259 1201.642090,1200.082886 
	C1201.639404,1213.565430 1203.443481,1226.606689 1208.762939,1239.033936 
	C1215.893311,1255.691406 1228.403198,1266.791382 1245.654297,1271.517212 
	C1255.796875,1274.295898 1266.547852,1275.913940 1277.058472,1276.092407 
	C1310.380493,1276.658081 1343.719116,1276.437744 1377.049683,1276.247192 
	C1395.288330,1276.143066 1412.761597,1272.998535 1427.871948,1261.612671 
	C1440.267944,1252.272095 1446.690918,1239.311401 1449.750732,1224.696777 
	C1451.506592,1216.309937 1452.201416,1207.557495 1452.207397,1198.968750 
	C1452.339722,1010.979248 1452.308594,822.989624 1452.308594,634.000000 
z"/>
<path fill="#FDE500" opacity="1.000000" stroke="none" 
	d="
M2238.000000,192.303345 
	C2283.663330,192.303345 2328.334717,191.776947 2372.987061,192.473740 
	C2407.232178,193.008087 2441.245117,196.461365 2474.373291,206.115402 
	C2522.018311,220.000061 2562.675537,244.377884 2593.104248,284.340332 
	C2614.869873,312.924927 2628.282959,345.282837 2636.047119,380.115967 
	C2640.969482,402.199280 2644.247314,424.498230 2644.354248,447.225037 
	C2644.703613,521.501404 2645.267334,595.776794 2645.607422,670.053223 
	C2645.629883,674.981323 2644.876465,680.007324 2643.778076,684.826843 
	C2641.329590,695.570190 2631.147705,703.700134 2619.976318,704.276428 
	C2617.316650,704.413696 2614.644287,704.310425 2611.977783,704.310486 
	C2553.648926,704.311279 2495.320068,704.311157 2436.991211,704.310913 
	C2434.658203,704.310913 2432.322266,704.380493 2429.992432,704.295105 
	C2415.600342,703.767456 2406.261719,695.498718 2404.417480,681.281189 
	C2403.777588,676.347351 2403.723145,671.313477 2403.718506,666.325012 
	C2403.671143,615.662231 2403.684814,564.999451 2403.693359,514.336670 
	C2403.695312,503.243958 2401.747803,492.476990 2397.614502,482.224457 
	C2390.031494,463.414764 2376.468750,450.771393 2356.751465,445.851013 
	C2347.174805,443.461182 2337.122803,441.984406 2327.266846,441.878235 
	C2286.941162,441.443817 2246.607910,441.596161 2206.278320,441.746887 
	C2190.177002,441.807068 2174.468506,443.991486 2160.274170,452.538086 
	C2147.044678,460.503754 2138.473877,472.225952 2134.440918,486.783691 
	C2131.986572,495.642395 2130.483887,505.077484 2130.475586,514.255371 
	C2130.265625,747.237305 2130.277832,980.219543 2130.446289,1213.201538 
	C2130.452393,1221.401489 2131.742432,1229.772339 2133.666016,1237.767090 
	C2139.965820,1263.946899 2157.688965,1278.369141 2183.363281,1283.557739 
	C2190.791992,1285.058960 2198.529053,1285.563965 2206.129150,1285.598511 
	C2247.791504,1285.787842 2289.457031,1285.866577 2331.117676,1285.536621 
	C2339.322754,1285.471802 2347.683838,1284.151489 2355.677490,1282.198853 
	C2381.749268,1275.830933 2396.416992,1258.336060 2401.567627,1232.586914 
	C2403.054199,1225.153809 2403.576172,1217.419067 2403.600830,1209.819580 
	C2403.770508,1157.824097 2403.621094,1105.827515 2403.779541,1053.832031 
	C2403.798584,1047.575195 2404.347900,1041.144165 2405.884033,1035.107422 
	C2408.423828,1025.127441 2415.505127,1019.253601 2425.690674,1017.919739 
	C2433.237305,1016.931458 2440.896729,1016.390259 2448.507568,1016.370972 
	C2499.836426,1016.240845 2551.166504,1016.248596 2602.495361,1016.370483 
	C2609.104980,1016.386169 2615.758301,1016.987244 2622.310791,1017.897278 
	C2633.801270,1019.493103 2642.329102,1027.900513 2644.191650,1039.413696 
	C2645.088135,1044.955444 2645.620361,1050.621094 2645.628418,1056.231689 
	C2645.724121,1123.226440 2646.232422,1190.227295 2645.494141,1257.213989 
	C2645.023682,1299.900146 2639.710693,1342.052246 2623.815918,1382.208374 
	C2603.678467,1433.084229 2570.293213,1472.107056 2521.221680,1497.222290 
	C2489.116943,1513.653931 2454.928467,1523.013428 2419.207520,1526.094604 
	C2393.751221,1528.290649 2368.136719,1529.259033 2342.579102,1529.546265 
	C2295.588623,1530.074463 2248.586426,1529.927368 2201.592041,1529.609375 
	C2173.987793,1529.422607 2146.312012,1529.440674 2118.805664,1527.460327 
	C2069.422852,1523.905151 2022.499512,1511.593872 1980.663940,1483.651611 
	C1942.845215,1458.392456 1916.787354,1423.854492 1900.426636,1381.802612 
	C1890.129028,1355.334473 1883.834839,1327.840332 1881.713989,1299.482910 
	C1880.772949,1286.902466 1879.778564,1274.283691 1879.773438,1261.681885 
	C1879.662842,991.369263 1879.545776,721.056519 1879.832642,450.744202 
	C1879.879761,406.398682 1888.529663,363.433929 1907.767334,323.191193 
	C1934.788330,266.667572 1979.206543,229.767075 2038.270630,210.089005 
	C2069.365967,199.729141 2101.359375,194.204224 2134.162109,193.702255 
	C2168.440430,193.177673 2202.720703,192.764893 2238.000000,192.303345 
z"/>
<path fill="#FDE504" opacity="1.000000" stroke="none" 
	d="
M2121.289062,2352.330078 
	C2106.822998,2352.215576 2093.216797,2352.101562 2078.656738,2352.099121 
	C2063.381836,2352.630859 2049.180176,2351.961670 2034.838135,2347.830566 
	C2034.838135,2255.454102 2034.838135,2163.327637 2034.838135,2070.315186 
	C2044.771606,2068.965576 2054.487061,2067.156982 2064.282715,2066.428711 
	C2079.179932,2065.320801 2094.146973,2064.221680 2109.058105,2064.503418 
	C2122.602783,2064.759521 2136.297852,2065.880371 2149.594482,2068.383057 
	C2169.894531,2072.204102 2187.203857,2081.586182 2197.611572,2100.607178 
	C2199.350098,2103.784668 2201.062744,2107.125977 2201.934570,2110.605469 
	C2210.906250,2146.402588 2197.902344,2182.585205 2160.125977,2196.806152 
	C2158.336182,2197.479736 2156.581299,2198.244629 2153.532959,2199.487793 
	C2159.922363,2201.682861 2165.142578,2203.560303 2170.416016,2205.274414 
	C2203.100342,2215.897461 2216.794922,2249.982178 2212.973389,2279.223389 
	C2210.863037,2295.371338 2205.448730,2309.574707 2194.369873,2321.264160 
	C2188.956787,2326.975830 2182.713379,2332.220947 2176.021729,2336.337402 
	C2159.598145,2346.439697 2141.481445,2351.626709 2121.289062,2352.330078 
M2068.311523,2306.691162 
	C2068.311523,2310.964600 2068.311523,2315.238037 2068.311523,2320.024902 
	C2071.936279,2320.738525 2074.787354,2321.579834 2077.686523,2321.808105 
	C2082.651123,2322.198975 2087.766113,2321.573486 2092.605469,2322.493652 
	C2107.316406,2325.291748 2121.817871,2323.638184 2135.930176,2319.949463 
	C2143.772217,2317.899658 2151.508789,2314.065674 2158.271240,2309.516846 
	C2181.405518,2293.956299 2180.366943,2259.642334 2169.090332,2244.361328 
	C2160.726318,2233.027100 2149.206055,2226.766846 2135.784668,2224.157471 
	C2114.175537,2219.955811 2092.282715,2219.603027 2070.355469,2220.766602 
	C2069.834229,2220.794189 2069.351562,2221.551758 2068.311768,2222.418945 
	C2068.311768,2249.568359 2068.311768,2277.163086 2068.311523,2306.691162 
M2102.347900,2191.684570 
	C2106.284424,2191.224121 2110.228271,2190.820801 2114.156006,2190.293457 
	C2136.612061,2187.279541 2154.749756,2176.910645 2164.662354,2156.247559 
	C2173.487305,2137.852051 2168.847412,2111.398438 2144.957520,2101.959229 
	C2136.450439,2098.597656 2127.270508,2096.496826 2118.200928,2095.096924 
	C2101.738525,2092.555176 2085.392334,2095.585449 2069.018555,2096.756836 
	C2069.018555,2128.805420 2069.018555,2159.855713 2069.018555,2191.689453 
	C2079.963867,2191.689453 2090.216064,2191.689453 2102.347900,2191.684570 
z"/>
<path fill="#FDE504" opacity="1.000000" stroke="none" 
	d="
M1510.782227,2098.866211 
	C1515.309082,2086.969727 1519.539307,2075.791992 1523.917969,2064.221680 
	C1529.374023,2064.221680 1534.586670,2064.221680 1540.782593,2064.221680 
	C1576.127563,2158.704834 1611.604736,2253.541504 1647.646973,2349.888428 
	C1640.362427,2350.057861 1634.571411,2350.244141 1628.779053,2350.313232 
	C1623.137939,2350.380371 1617.495605,2350.327637 1611.153687,2350.327637 
	C1601.487427,2324.353760 1591.908813,2298.615723 1582.281250,2272.745605 
	C1548.020020,2272.745605 1514.438232,2272.745605 1479.899292,2272.745605 
	C1470.665771,2298.284912 1461.322754,2324.126465 1452.030396,2349.828613 
	C1440.436157,2349.828613 1429.558960,2349.828613 1417.568970,2349.828613 
	C1421.138428,2340.056885 1424.365845,2331.053955 1427.709839,2322.094482 
	C1455.034302,2248.886719 1482.381226,2175.687256 1509.708252,2102.480225 
	C1510.056152,2101.548340 1510.230469,2100.551514 1510.782227,2098.866211 
M1505.696899,2202.636719 
	C1501.026489,2215.506836 1496.356079,2228.376953 1491.446167,2241.907471 
	C1518.939209,2241.907471 1544.788696,2241.907471 1571.630981,2241.907471 
	C1567.575317,2230.702148 1563.711548,2220.169678 1559.948242,2209.601562 
	C1550.837158,2184.016602 1539.995117,2158.994629 1534.858643,2132.114258 
	C1534.080811,2128.043701 1532.763550,2124.075928 1531.695801,2120.060791 
	C1525.682739,2148.292480 1516.177979,2174.795410 1505.696899,2202.636719 
z"/>
<path fill="#FDE502" opacity="1.000000" stroke="none" 
	d="
M1337.993286,2067.679199 
	C1348.283203,2067.679199 1357.574341,2067.679199 1367.587158,2067.679199 
	C1367.587158,2077.772461 1367.587158,2087.251953 1367.587158,2098.068848 
	C1339.088501,2098.068848 1310.335571,2098.068848 1280.650635,2098.068848 
	C1280.650635,2182.540039 1280.650635,2265.698486 1280.650635,2349.586426 
	C1268.953735,2349.586426 1258.200439,2349.586426 1246.544556,2349.586426 
	C1246.544556,2266.124268 1246.544556,2182.932617 1246.544556,2098.490234 
	C1216.910889,2098.490234 1188.129395,2098.490234 1158.839111,2098.490234 
	C1158.839111,2087.760986 1158.839111,2078.286133 1158.839111,2067.679443 
	C1218.554199,2067.679443 1277.774292,2067.679443 1337.993286,2067.679199 
z"/>
<path fill="#FDE502" opacity="1.000000" stroke="none" 
	d="
M2611.680176,2268.000000 
	C2611.680176,2201.073242 2611.680176,2135.146240 2611.680176,2067.978271 
	C2622.957764,2067.426025 2633.717285,2067.679688 2645.374512,2067.829346 
	C2645.374512,2151.744385 2645.374512,2234.897705 2645.374512,2319.369141 
	C2656.996582,2319.979492 2667.852783,2319.594238 2678.680664,2319.664307 
	C2689.673828,2319.735352 2700.667236,2319.679932 2711.660645,2319.679932 
	C2722.654053,2319.679932 2733.647217,2319.679932 2744.640625,2319.679932 
	C2755.537354,2319.679932 2766.434082,2319.679688 2777.811523,2319.679688 
	C2777.811523,2330.233154 2777.811523,2339.707520 2777.811523,2349.751953 
	C2722.573975,2349.751953 2667.785400,2349.751953 2611.680420,2349.751953 
	C2611.680420,2322.704102 2611.680420,2295.852051 2611.680176,2268.000000 
z"/>
<path fill="#FDE502" opacity="1.000000" stroke="none" 
	d="
M3117.507080,2242.885254 
	C3109.895020,2266.579102 3089.727783,2281.772217 3061.213379,2280.667236 
	C3037.873291,2279.762939 3020.449707,2270.125000 3011.854248,2248.528076 
	C3003.522949,2227.594482 3004.896729,2206.341553 3019.609619,2188.267090 
	C3033.542969,2171.150146 3052.291016,2166.357910 3074.156982,2169.245117 
	C3102.217041,2172.949951 3120.411621,2197.179932 3119.629883,2223.375000 
	C3119.443115,2229.630371 3118.378174,2235.859375 3117.507080,2242.885254 
z"/>
<path fill="#FDE502" opacity="1.000000" stroke="none" 
	d="
M410.632935,2203.379883 
	C419.312225,2184.077148 433.032349,2172.017090 453.524414,2169.090576 
	C491.123138,2163.721436 519.516296,2186.802246 519.771423,2223.486328 
	C519.921997,2245.135010 512.353882,2262.631348 493.249756,2273.600830 
	C470.533539,2286.644775 427.418793,2284.838135 412.222656,2249.995117 
	C405.693909,2235.025635 406.291351,2219.609619 410.632935,2203.379883 
z"/>
<path fill="#FDE504" opacity="1.000000" stroke="none" 
	d="
M817.706909,2313.998047 
	C817.706848,2326.266357 817.706848,2337.534912 817.706848,2349.764160 
	C806.293396,2350.763184 795.558533,2350.437988 784.242371,2349.914062 
	C784.242371,2255.964844 784.242371,2162.566406 784.242371,2068.420410 
	C795.010742,2068.420410 805.758850,2068.420410 817.706970,2068.420410 
	C817.706970,2150.080811 817.706970,2231.539795 817.706909,2313.998047 
z"/>
<path fill="#FFFFFF" opacity="1.000000" stroke="none" 
	d="
M263.691467,728.000000 
	C263.691376,569.783875 263.691376,412.567688 263.691376,254.312683 
	C268.048096,254.312683 271.292145,254.312683 274.536163,254.312683 
	C327.532104,254.312683 380.528900,254.150940 433.523407,254.426361 
	C446.778778,254.495255 460.058777,255.696472 472.689087,260.524414 
	C494.923584,269.023560 507.170746,285.830963 511.837891,308.462921 
	C513.502991,316.537384 514.207397,324.948853 514.210754,333.206940 
	C514.327637,622.184753 514.301331,911.162537 514.331055,1200.140381 
	C514.332397,1213.250610 512.707703,1226.096313 507.595886,1238.188965 
	C500.291473,1255.468750 487.289642,1266.953857 469.262085,1271.830200 
	C460.051056,1274.321777 450.323090,1276.043457 440.815063,1276.108398 
	C384.155396,1276.496460 327.491730,1276.302490 270.829407,1276.284424 
	C268.883514,1276.283813 266.937683,1276.076782 263.691589,1275.891724 
	C263.691589,1093.361084 263.691589,911.180542 263.691467,728.000000 
z"/>
<path fill="#FFFFFE" opacity="1.000000" stroke="none" 
	d="
M3190.000000,439.695740 
	C3219.311035,439.899719 3247.657959,439.299774 3275.921875,440.557861 
	C3299.266357,441.596985 3319.227295,450.620667 3331.503906,472.092834 
	C3338.965820,485.144348 3341.599854,499.495178 3341.625732,514.254272 
	C3341.763916,593.223328 3341.690430,672.192749 3341.690430,751.162048 
	C3341.690430,902.769775 3341.769531,1054.377563 3341.515137,1205.984985 
	C3341.498047,1216.160034 3340.140137,1226.665527 3337.365234,1236.437866 
	C3330.439209,1260.831055 3313.303955,1274.829590 3288.729248,1279.692505 
	C3281.941406,1281.035645 3274.895020,1281.578613 3267.963867,1281.605469 
	C3224.647949,1281.772827 3181.327637,1281.979248 3138.017334,1281.462891 
	C3128.555908,1281.350098 3118.767090,1279.457153 3109.757812,1276.479980 
	C3087.549316,1269.141357 3075.055176,1252.568115 3070.402344,1230.163330 
	C3068.593018,1221.449097 3067.802979,1212.370239 3067.797607,1203.456543 
	C3067.660645,975.212097 3067.692139,746.967468 3067.682129,518.722900 
	C3067.681641,506.684174 3068.688232,494.705505 3072.757568,483.362946 
	C3082.352295,456.622192 3103.193115,442.341400 3134.065430,440.472748 
	C3152.325684,439.367493 3170.685059,439.899841 3190.000000,439.695740 
z"/>
<path fill="#FFFFFC" opacity="1.000000" stroke="none" 
	d="
M2068.311523,2305.724609 
	C2068.311768,2277.163086 2068.311768,2249.568359 2068.311768,2222.418945 
	C2069.351562,2221.551758 2069.834229,2220.794189 2070.355469,2220.766602 
	C2092.282715,2219.603027 2114.175537,2219.955811 2135.784668,2224.157471 
	C2149.206055,2226.766846 2160.726318,2233.027100 2169.090332,2244.361328 
	C2180.366943,2259.642334 2181.405518,2293.956299 2158.271240,2309.516846 
	C2151.508789,2314.065674 2143.772217,2317.899658 2135.930176,2319.949463 
	C2121.817871,2323.638184 2107.316406,2325.291748 2092.605469,2322.493652 
	C2087.766113,2321.573486 2082.651123,2322.198975 2077.686523,2321.808105 
	C2074.787354,2321.579834 2071.936279,2320.738525 2068.311523,2320.024902 
	C2068.311523,2315.238037 2068.311523,2310.964600 2068.311523,2305.724609 
z"/>
<path fill="#FFFFFB" opacity="1.000000" stroke="none" 
	d="
M2101.408203,2191.687012 
	C2090.216064,2191.689453 2079.963867,2191.689453 2069.018555,2191.689453 
	C2069.018555,2159.855713 2069.018555,2128.805420 2069.018555,2096.756836 
	C2085.392334,2095.585449 2101.738525,2092.555176 2118.200928,2095.096924 
	C2127.270508,2096.496826 2136.450439,2098.597656 2144.957520,2101.959229 
	C2168.847412,2111.398438 2173.487305,2137.852051 2164.662354,2156.247559 
	C2154.749756,2176.910645 2136.612061,2187.279541 2114.156006,2190.293457 
	C2110.228271,2190.820801 2106.284424,2191.224121 2101.408203,2191.687012 
z"/>
<path fill="#FFFFFB" opacity="1.000000" stroke="none" 
	d="
M1505.906006,2201.883057 
	C1516.177979,2174.795410 1525.682739,2148.292480 1531.695801,2120.060791 
	C1532.763550,2124.075928 1534.080811,2128.043701 1534.858643,2132.114258 
	C1539.995117,2158.994629 1550.837158,2184.016602 1559.948242,2209.601562 
	C1563.711548,2220.169678 1567.575317,2230.702148 1571.630981,2241.907471 
	C1544.788696,2241.907471 1518.939209,2241.907471 1491.446167,2241.907471 
	C1496.356079,2228.376953 1501.026489,2215.506836 1505.906006,2201.883057 
z"/>
</svg>